<?xml version="1.0" encoding="UTF-8"?>
<!DOCTYPE svg PUBLIC "-//W3C//DTD SVG 1.1//EN" "http://www.w3.org/Graphics/SVG/1.1/DTD/svg11.dtd">
<svg height="102px" version="1.1" viewBox="-0.5 -0.5 92 102" width="92px" xmlns="http://www.w3.org/2000/svg" xmlns:xlink="http://www.w3.org/1999/xlink">
  <defs/>
  <g>
    <path d="M 8.65 16 C 40.49 25.83 65.44 50.07 75.56 81 C 56.44 88.43 34.6 84.08 20.04 69.94 C 5.48 55.79 1 34.57 8.65 16 Z M 3.5 101 L 6.59 56 C 11.81 68.22 21.81 77.93 34.38 83 L 39.53 101 Z M 60.12 16 C 64.21 16 68.14 17.58 71.04 20.39 C 73.93 23.21 75.56 27.02 75.56 31 L 73.5 31 C 73.5 27.55 72.09 24.25 69.58 21.81 C 67.07 19.37 63.67 18 60.12 18 Z M 60.12 8 C 66.4 8 72.42 10.42 76.86 14.74 C 81.3 19.05 83.79 24.9 83.79 31 L 81.74 31 C 81.74 19.4 72.06 10 60.12 10 Z M 60.12 1 C 68.31 1 76.16 4.16 81.95 9.79 C 87.75 15.41 91 23.04 91 31 L 88.94 31 C 88.94 15.54 76.04 3 60.12 3 Z" fill="#bbdefb" pointer-events="all" stroke="#2196f3" stroke-miterlimit="10" stroke-width="2"/>
    <path d="M 8.65 16 C 18.69 47.04 43.65 71.4 75.56 81.29" fill="none" pointer-events="all" stroke="#2196f3" stroke-miterlimit="10" stroke-width="2"/>
    <path d="M 30.78 52.5 L 60.12 31 L 37.99 59.5 Z" fill="#bbdefb" pointer-events="all" stroke="#2196f3" stroke-linejoin="round" stroke-miterlimit="10" stroke-width="3"/>
    <ellipse cx="60.12" cy="31" fill="#bbdefb" pointer-events="all" rx="3.08818483358115" ry="3" stroke="#2196f3" stroke-width="3"/>
  </g>
</svg>
