<?xml version="1.0" encoding="UTF-8"?>
<svg id="Ebene_2" data-name="Ebene 2" xmlns="http://www.w3.org/2000/svg" xmlns:xlink="http://www.w3.org/1999/xlink" viewBox="0 0 82.47 22.58">
  <defs>
    <style>
      .cls-1 {
        fill: #fff;
      }

      .cls-2 {
        fill: url(#INOA_Groundcontrol_2);
      }

      .cls-3 {
        fill: none;
      }
    </style>
    <linearGradient id="INOA_Groundcontrol_2" data-name="INOA Groundcontrol 2" x1="-23.54" y1="41.91" x2="-11.58" y2="29.95" gradientTransform="translate(28.82 -24.64)" gradientUnits="userSpaceOnUse">
      <stop offset="0" stop-color="#a82585"/>
      <stop offset=".31" stop-color="#683c8f"/>
      <stop offset=".52" stop-color="#353c8c"/>
      <stop offset=".63" stop-color="#1f3d8c"/>
      <stop offset=".71" stop-color="#224d99"/>
      <stop offset=".85" stop-color="#2b7abc"/>
      <stop offset="1" stop-color="#36ade4"/>
    </linearGradient>
  </defs>
  <g id="Ebene_1-2" data-name="Ebene 1">
    <circle class="cls-1" cx="11.31" cy="11.29" r="11.29"/>
    <g>
      <circle class="cls-3" cx="11.29" cy="11.29" r="11.29"/>
      <g>
        <g>
          <path class="cls-2" d="m11.27,4.24c1.88,0,3.65.73,4.98,2.06,1.33,1.33,2.06,3.1,2.06,4.98,0,1.4-.41,2.74-1.16,3.88l1.01,1.01c.98-1.38,1.56-3.07,1.56-4.89,0-4.67-3.78-8.45-8.45-8.45,0,0,0,0,0,0-1.82,0-3.51.58-4.89,1.56l1.01,1.01c1.14-.76,2.48-1.16,3.88-1.16Z"/>
          <path class="cls-2" d="m11.27,7.21c2.24,0,4.07,1.83,4.07,4.07,0,.6-.13,1.18-.37,1.7l1.04,1.04c.47-.81.74-1.75.74-2.75,0-3.03-2.45-5.48-5.48-5.48-1,0-1.94.27-2.75.74l1.04,1.04c.53-.24,1.11-.37,1.7-.37Z"/>
        </g>
        <path class="cls-2" d="m11.53,11.56l.47-.47c.2.12.44.18.69.18.77,0,1.4-.63,1.4-1.4s-.63-1.4-1.4-1.4-1.4.63-1.4,1.4c0,.26.07.51.2.72l-.46.46-5.74-5.74c-1.53,1.53-2.48,3.65-2.48,5.98,0,4.67,3.78,8.45,8.45,8.45,2.34,0,4.45-.95,5.98-2.48l-5.71-5.71Z"/>
      </g>
    </g>
    <g>
      <path class="cls-1" d="m27.64,8.92c0,.07-.03.13-.08.18-.05.05-.11.08-.18.08s-.13-.03-.18-.08-.08-.11-.08-.18v-4.18c0-.07.03-.13.08-.18s.11-.08.18-.08.13.03.18.08c.05.05.08.11.08.18v4.18Z"/>
      <path class="cls-1" d="m32.95,8.92c0,.07-.03.13-.08.18s-.11.08-.18.08-.13-.02-.18-.08c-.05-.05-.08-.11-.08-.18v-2.13c0-.48-.17-.9-.51-1.24-.34-.34-.76-.52-1.25-.52s-.9.17-1.24.52c-.34.34-.51.76-.51,1.24v2.12c0,.07-.03.13-.08.18-.05.05-.11.08-.18.08s-.13-.02-.18-.07c-.05-.05-.08-.11-.08-.18v-2.13c0-.63.22-1.16.67-1.61.44-.45.98-.67,1.61-.67s1.16.22,1.61.67c.44.44.67.98.67,1.61v2.13Z"/>
      <path class="cls-1" d="m38.47,6.89c0,.63-.25,1.19-.74,1.68-.49.49-1.05.74-1.68.74s-1.19-.25-1.68-.74c-.49-.49-.74-1.05-.74-1.68s.25-1.19.74-1.68,1.05-.74,1.68-.74,1.19.25,1.68.74c.49.49.74,1.05.74,1.68Zm-.52,0c0-.49-.2-.93-.59-1.31-.39-.39-.83-.58-1.31-.58s-.92.19-1.31.58c-.39.39-.59.83-.59,1.31s.2.92.59,1.31c.39.39.83.58,1.31.58s.92-.19,1.31-.58c.39-.39.59-.82.59-1.31Z"/>
      <path class="cls-1" d="m43.14,8.81l-2.02-4.16s0,0,0,0c0,0,0-.02-.01-.02,0,0,0-.01-.01-.02,0,0-.01-.01-.02-.02,0,0-.01-.01-.02-.02,0,0-.01,0-.02-.01,0,0-.02-.01-.02-.01,0,0,0,0,0,0,0,0,0,0-.01,0,0,0-.02,0-.03,0,0,0-.02,0-.02,0,0,0-.02,0-.03,0,0,0-.02,0-.02,0,0,0-.02,0-.02,0,0,0-.02,0-.03,0,0,0-.02,0-.02,0,0,0-.02,0-.03,0,0,0,0,0-.01,0,0,0,0,0,0,0,0,0-.02,0-.02.02,0,0-.01,0-.02.01,0,0-.01.01-.02.02,0,0-.01.01-.02.02,0,0,0,.01-.01.02,0,0-.01.02-.01.02,0,0,0,0,0,0l-2.02,4.16c-.06.13,0,.28.12.34.01,0,.02,0,.03.01.03,0,.05.01.08.01.1,0,.19-.05.23-.15l.15-.31.37-.77s.08-.08.12-.13c.34-.34.72-.51,1.14-.51s.8.17,1.14.51c.04.04.08.08.12.13l.37.77.15.31c.04.09.14.15.23.15.03,0,.05,0,.08-.01.01,0,.02,0,.03-.01.13-.06.18-.22.12-.34Zm-2.25-1.95c-.29,0-.56.06-.82.18l.82-1.69.82,1.69c-.26-.12-.53-.18-.82-.18Z"/>
    </g>
    <g>
      <path class="cls-1" d="m30.17,12.65c-.63,0-1.18.24-1.66.71s-.72,1.03-.72,1.66.24,1.18.72,1.66c.48.47,1.03.71,1.66.71h.39v-2.17c0-.09.03-.17.1-.24s.14-.1.24-.1.17.03.24.1.1.14.1.24v2.85h-1.06c-.81,0-1.53-.3-2.13-.91-.61-.61-.91-1.32-.91-2.13s.3-1.53.91-2.13c.61-.61,1.32-.91,2.13-.91v.67Zm0,0h.72c.09,0,.17-.03.24-.1s.1-.14.1-.24-.03-.17-.1-.24-.14-.1-.24-.1h-.72v.67Z"/>
      <path class="cls-1" d="m34.1,13.27h.61c.09,0,.18.03.25.1s.11.15.11.24c0,.1-.03.18-.1.24-.07.06-.14.1-.24.1h-.62c-.47,0-.88.17-1.21.5-.33.33-.5.73-.5,1.2v2.02c0,.09-.03.17-.11.24s-.15.1-.24.1c-.23,0-.34-.11-.34-.33v-2.03c0-.65.23-1.21.7-1.68s1.03-.7,1.69-.7h.61-.61Z"/>
      <path class="cls-1" d="m39.6,15.65c0,.66-.23,1.22-.7,1.69s-1.02.7-1.68.7-1.22-.23-1.69-.7c-.47-.47-.7-1.03-.7-1.69s.23-1.21.7-1.68,1.03-.7,1.69-.7,1.21.23,1.68.7c.47.47.7,1.03.7,1.68Zm-.69,0c0-.47-.17-.87-.49-1.2s-.73-.5-1.19-.5-.87.17-1.2.5-.49.73-.49,1.2.16.86.49,1.19c.33.33.73.49,1.2.49s.86-.16,1.19-.49c.33-.33.49-.73.49-1.19Z"/>
      <path class="cls-1" d="m44.09,17.32c-.47.47-1.02.7-1.68.7s-1.22-.23-1.69-.7c-.47-.47-.7-1.03-.7-1.69,0,0,0-.64,0-1.94,0-.09.04-.18.11-.25.07-.07.15-.11.25-.11s.17.03.24.1c.07.07.1.14.1.23v1.98c0,.47.16.88.49,1.21s.73.5,1.2.5.86-.17,1.19-.5.49-.73.49-1.21c0,0,0-.64,0-1.95,0-.09.03-.18.1-.25.07-.07.14-.11.24-.11.22,0,.34.11.34.33l.02,1.97c0,.66-.23,1.22-.7,1.69Z"/>
      <path class="cls-1" d="m49.94,17.68c0,.09-.03.18-.11.25s-.15.11-.24.11-.17-.03-.24-.09c-.07-.06-.1-.14-.1-.23v-1.97c0-.47-.16-.87-.49-1.2-.33-.33-.73-.5-1.19-.5s-.87.17-1.2.5c-.33.33-.49.73-.49,1.2,0,0,0,.64,0,1.93,0,.1-.03.19-.11.26s-.15.11-.24.11-.17-.03-.24-.1-.1-.14-.1-.24v-1.97c0-.65.23-1.21.69-1.67.46-.46,1.02-.69,1.68-.69s1.21.23,1.68.7c.47.47.7,1.02.7,1.68v1.94Z"/>
      <path class="cls-1" d="m55.08,15.64c0,.66-.23,1.22-.7,1.69-.47.47-1.03.7-1.68.7s-1.22-.23-1.69-.7c-.47-.47-.7-1.03-.7-1.69s.23-1.22.7-1.69c.47-.47,1.03-.7,1.69-.7s1.19.25,1.68.76v-2.25c0-.09.04-.18.11-.25.07-.07.15-.11.24-.11s.17.03.24.09c.07.06.1.14.1.23v3.9Zm-.69,0c0-.47-.16-.87-.49-1.2-.33-.33-.73-.5-1.19-.5s-.87.17-1.2.5c-.33.33-.49.73-.49,1.2s.16.88.49,1.21c.33.33.73.5,1.2.5s.86-.16,1.19-.5c.33-.33.49-.73.49-1.21Z"/>
      <path class="cls-1" d="m58.74,13.58c0,.09-.03.17-.1.23s-.14.1-.24.1h-.62c-.47,0-.88.17-1.21.5-.33.33-.5.73-.5,1.2s.17.87.5,1.2c.33.33.73.5,1.2.5h.6c.09,0,.18.03.25.1.07.07.11.15.11.24,0,.21-.12.33-.35.34-.17.01-.38.02-.62.02-.66,0-1.22-.23-1.69-.7-.47-.47-.7-1.03-.7-1.69s.23-1.22.7-1.69c.47-.47,1.03-.7,1.69-.7h.61c.09,0,.18.04.25.11.07.07.11.15.11.24Z"/>
      <path class="cls-1" d="m63.97,15.65c0,.66-.23,1.22-.7,1.69s-1.02.7-1.68.7-1.22-.23-1.69-.7c-.47-.47-.7-1.03-.7-1.69s.23-1.21.7-1.68,1.03-.7,1.69-.7,1.21.23,1.68.7c.47.47.7,1.03.7,1.68Zm-.69,0c0-.47-.17-.87-.49-1.2s-.73-.5-1.19-.5-.87.17-1.2.5-.49.73-.49,1.2.16.86.49,1.19c.33.33.73.49,1.2.49s.86-.16,1.19-.49c.33-.33.49-.73.49-1.19Z"/>
      <path class="cls-1" d="m69.15,17.68c0,.09-.03.18-.11.25s-.15.11-.24.11-.17-.03-.24-.09c-.07-.06-.1-.14-.1-.23v-1.97c0-.47-.16-.87-.49-1.2-.33-.33-.73-.5-1.19-.5s-.87.17-1.2.5c-.33.33-.49.73-.49,1.2,0,0,0,.64,0,1.93,0,.1-.03.19-.11.26s-.15.11-.24.11-.17-.03-.24-.1-.1-.14-.1-.24v-1.97c0-.65.23-1.21.69-1.67.46-.46,1.02-.69,1.68-.69s1.21.23,1.68.7c.47.47.7,1.02.7,1.68v1.94Z"/>
      <path class="cls-1" d="m72.97,17.71c0,.22-.11.33-.34.35-.29.01-.49.02-.62.02-.66,0-1.22-.22-1.69-.67-.47-.45-.7-1-.7-1.65v-3.26c0-.09.03-.16.1-.23s.15-.1.24-.1.17.04.24.11c.07.07.1.15.11.25v.82h2.31c.21,0,.32.12.32.35,0,.1-.04.18-.11.25-.07.07-.15.1-.25.1h-2.27v1.65c0,.46.17.86.51,1.19.34.32.74.48,1.21.48h.6c.09,0,.18.04.25.11.07.07.11.15.11.25Z"/>
      <path class="cls-1" d="m75.81,13.27h.61c.09,0,.18.03.25.1s.11.15.11.24c0,.1-.03.18-.1.24-.07.06-.14.1-.24.1h-.62c-.47,0-.88.17-1.21.5-.33.33-.5.73-.5,1.2v2.02c0,.09-.03.17-.11.24s-.15.1-.24.1c-.23,0-.34-.11-.34-.33v-2.03c0-.65.23-1.21.7-1.68s1.03-.7,1.69-.7h.61-.61Z"/>
      <path class="cls-1" d="m81.31,15.65c0,.66-.23,1.22-.7,1.69-.47.47-1.02.7-1.68.7s-1.22-.23-1.69-.7c-.47-.47-.7-1.03-.7-1.69s.23-1.21.7-1.68,1.03-.7,1.69-.7,1.21.23,1.68.7c.47.47.7,1.03.7,1.68Zm-.69,0c0-.47-.17-.87-.49-1.2s-.73-.5-1.19-.5-.87.17-1.2.5-.49.73-.49,1.2.16.86.49,1.19c.33.33.73.49,1.2.49s.86-.16,1.19-.49c.33-.33.49-.73.49-1.19Z"/>
      <path class="cls-1" d="m82.47,17.7c0,.09-.04.17-.11.23s-.16.09-.25.09-.17-.04-.23-.11-.1-.15-.1-.25v-5.93c0-.09.03-.16.1-.23s.15-.1.24-.1.17.04.24.11c.07.07.11.15.11.25v5.93Z"/>
    </g>
  </g>
</svg>